STARTFONT 2.1
COMMENT
COMMENT Converted from OpenType font "Q:\font stuff\winfont\ZenonCondensed.ttf" by "otf2bdf 3.0".
COMMENT
FONT -FreeType-ZenonCondensed-Medium-R-Normal--52-520-72-72-P-200-ISO10646-1
SIZE 52 72 72
FONTBOUNDINGBOX 52 63 -5 -12
STARTPROPERTIES 19
FOUNDRY "FreeType"
FAMILY_NAME "ZenonCondensed"
WEIGHT_NAME "Medium"
SLANT "R"
SETWIDTH_NAME "Normal"
ADD_STYLE_NAME ""
PIXEL_SIZE 44
POINT_SIZE 520
RESOLUTION_X 72
RESOLUTION_Y 72
SPACING "P"
AVERAGE_WIDTH 200
CHARSET_REGISTRY "ISO10646"
CHARSET_ENCODING "1"
FONT_ASCENT 50
FONT_DESCENT 12
COPYRIGHT "Copyright © 1986-1995 SWFTE International, Ltd. All rights reserved"
_OTF_FONTFILE "Q:\font stuff\winfont\ZenonCondensed.ttf"
_OTF_PSNAME "ZenonCondensedRegularSWFTE"
ENDPROPERTIES
CHARS 95
STARTCHAR 0020
ENCODING 32
SWIDTH 211 0
DWIDTH 11 0
BBX 0 0 0 0
BITMAP
ENDCHAR
STARTCHAR 0021
ENCODING 33
SWIDTH 192 0
DWIDTH 10 0
BBX 4 41 3 0
BITMAP
F0
F0
F0
F0
F0
F0
F0
F0
F0
F0
F0
F0
F0
F0
F0
F0
F0
F0
F0
F0
F0
F0
F0
F0
F0
F0
F0
F0
C0
00
00
00
60
70
F0
F0
F0
F0
F0
70
60
ENDCHAR
STARTCHAR 0022
ENCODING 34
SWIDTH 307 0
DWIDTH 16 0
BBX 8 13 4 28
BITMAP
E7
E7
E7
E7
E7
E7
E7
E7
E7
E7
E7
C4
80
ENDCHAR
STARTCHAR 0023
ENCODING 35
SWIDTH 538 0
DWIDTH 28 0
BBX 24 26 1 11
BITMAP
001C38
003C78
003C78
007870
0078F0
0FFFF0
0FFFFF
0FFFFF
1FFFFF
1FFFFE
01E3FE
01E3C0
01C3C0
03C380
03C780
7FFFF8
7FFFF8
7FFFF8
FFFFF0
FFFFF0
0F0E00
0F1E00
0F1C00
0E1C00
1E3C00
1E3C00
ENDCHAR
STARTCHAR 0024
ENCODING 36
SWIDTH 634 0
DWIDTH 33 0
BBX 31 59 1 -8
BITMAP
0007C000
0003C000
0003C000
0003C000
0003C000
0003C000
0003C000
0003C000
0003C000
0003C000
001FFFF0
03FFFFE0
0FFFFFE0
1FFFFFC0
1FFFFF80
3FFFFF00
3FFFC000
3E07C000
3C07C000
3C07C000
3C07C000
3E07C000
3F07C000
1FC3C000
1FF1C000
0FFC4000
07FF0000
01FFE000
00FFF800
003FFC00
000FFF00
0003FF80
00007FC0
00021FE0
000387F0
0003C3F0
0003C1F8
0003C0F8
0003C07C
0003C03C
0003C03E
0003C03E
0003C01E
0003C01E
0003C01E
0FFFFFFE
1FFFFFFE
3FFFFFFE
7FFFFFFE
7FFFFFFE
FFFFFFFE
0003C000
0003C000
0003C000
0003C000
0003C000
0003C000
0003C000
0003C000
ENDCHAR
STARTCHAR 0025
ENCODING 37
SWIDTH 480 0
DWIDTH 25 0
BBX 20 43 2 -2
BITMAP
0001E0
0003C0
1F03C0
3F83C0
7FC780
F1E780
E0E780
E0EF00
E0EF00
E0EF00
E0FE00
F1FE00
7FDE00
3FBE00
1F3C00
003C00
007C00
007800
007800
00F800
00F000
00F000
01F000
01E000
01E000
03E000
03C000
03CF80
07FFC0
07BFE0
07F8F0
0FF070
0F7070
0F7070
1F7070
1E7070
1E78F0
3E3FE0
3C1FE0
3C0F80
7C0000
780000
400000
ENDCHAR
STARTCHAR 0026
ENCODING 38
SWIDTH 480 0
DWIDTH 25 0
BBX 20 40 2 3
BITMAP
01F000
07F800
0FFC00
1FFE00
1FFF00
3FFF80
3E3F80
7C0F80
7C0F00
780E00
780400
780000
780000
780000
780000
380000
3C0000
3C0000
3F0000
7F8000
7E0000
7C0000
F8FFC0
F87FC0
F07FE0
F03FF0
F00700
F00700
F00700
F00700
F80700
780700
7C0700
7E0700
7FFF00
3FFF80
3FFF80
3FFFC0
1FFFE0
0FFFE0
ENDCHAR
STARTCHAR 0027
ENCODING 39
SWIDTH 134 0
DWIDTH 7 0
BBX 4 13 4 38
BITMAP
F0
F0
F0
F0
F0
F0
F0
F0
F0
F0
F0
C0
80
ENDCHAR
STARTCHAR 0028
ENCODING 40
SWIDTH 288 0
DWIDTH 15 0
BBX 10 45 2 -3
BITMAP
07C0
0F80
0F00
1F00
1E00
3E00
3C00
3C00
7C00
7800
7800
7800
7800
F000
F000
F000
F000
F000
F000
F000
F000
F000
F000
F000
F000
F000
F000
F000
F000
F000
F000
F800
F800
7800
7800
7800
7C00
7C00
3C00
3E00
3E00
1F00
1F00
0F80
07C0
ENDCHAR
STARTCHAR 0029
ENCODING 41
SWIDTH 269 0
DWIDTH 14 0
BBX 10 45 2 -2
BITMAP
F800
7C00
3E00
1E00
1E00
0F00
0F00
0F00
0780
0780
0780
0780
03C0
03C0
03C0
03C0
03C0
03C0
03C0
03C0
03C0
03C0
03C0
03C0
03C0
03C0
03C0
03C0
03C0
03C0
03C0
03C0
03C0
0780
0780
0780
0780
0F80
0F00
0F00
1F00
1E00
3E00
7E00
FC00
ENDCHAR
STARTCHAR 002A
ENCODING 42
SWIDTH 442 0
DWIDTH 23 0
BBX 17 30 2 11
BITMAP
00C000
00C000
00C000
00C000
00C000
00C000
40C080
60C180
70C380
38C700
1CCE00
0ED800
07F000
03E000
01E000
03F000
07F800
1EDC00
3CCF00
78C780
E0C380
C0C080
00C000
00C000
00C000
00C000
00C000
00C000
00C000
008000
ENDCHAR
STARTCHAR 002B
ENCODING 43
SWIDTH 403 0
DWIDTH 21 0
BBX 17 18 1 10
BITMAP
03E000
03E000
03E000
03E080
03E180
03E300
07FE00
0FFE00
1FFC00
3FF800
3FF800
7FF000
E3C000
83C000
03C000
03C000
03C000
03C000
ENDCHAR
STARTCHAR 002C
ENCODING 44
SWIDTH 173 0
DWIDTH 9 0
BBX 4 14 2 -7
BITMAP
F0
F0
F0
F0
F0
F0
F0
F0
F0
F0
F0
F0
F0
80
ENDCHAR
STARTCHAR 002D
ENCODING 45
SWIDTH 384 0
DWIDTH 20 0
BBX 17 11 1 8
BITMAP
000080
000180
000300
0FFE00
1FFE00
1FFC00
3FF800
7FF800
7FF000
C00000
800000
ENDCHAR
STARTCHAR 002E
ENCODING 46
SWIDTH 211 0
DWIDTH 11 0
BBX 4 9 3 0
BITMAP
60
70
F0
F0
F0
F0
F0
70
60
ENDCHAR
STARTCHAR 002F
ENCODING 47
SWIDTH 384 0
DWIDTH 20 0
BBX 17 42 2 -1
BITMAP
000780
000780
000F80
000F00
000F00
001F00
001E00
001E00
003E00
003C00
003C00
007C00
007800
007800
007800
00F000
00F000
00F000
01E000
01E000
01E000
03E000
03C000
03C000
07C000
078000
078000
0F8000
0F0000
0F0000
1F0000
1E0000
1E0000
1E0000
3C0000
3C0000
3C0000
7C0000
780000
780000
F80000
C00000
ENDCHAR
STARTCHAR 0030
ENCODING 48
SWIDTH 500 0
DWIDTH 26 0
BBX 21 41 2 0
BITMAP
01F800
07FE00
0FFF80
1FFF80
3FFFC0
7FFFE0
7F07E0
FC03F0
F801F0
F800F0
F000F0
F000F0
F000F8
F000F8
F00078
F00078
F00078
F00078
F00078
F00078
F00078
F00078
F00078
F00078
F00078
F00078
F00078
F000F8
F000F8
F000F0
F000F0
F800F0
F801F0
FC03F0
7F07E0
7FFFE0
3FFFC0
1FFF80
0FFF00
07FE00
01F800
ENDCHAR
STARTCHAR 0031
ENCODING 49
SWIDTH 211 0
DWIDTH 11 0
BBX 8 43 1 -1
BITMAP
01
03
03
07
0F
0F
1F
3F
7F
7F
FF
0F
0F
0F
0F
0F
0F
0F
0F
0F
0F
0F
0F
0F
0F
0F
0F
0F
0F
0F
0F
0F
0F
0F
0F
0F
0F
0F
0F
0F
0F
0E
08
ENDCHAR
STARTCHAR 0032
ENCODING 50
SWIDTH 480 0
DWIDTH 25 0
BBX 24 41 1 0
BITMAP
007E00
01FF80
03FFC0
07FFE0
0FFFF0
0FFFF0
1FC1F8
1F80F8
0F0078
07003C
06003C
02003C
00003C
00003C
00003C
00007C
00007C
0000F8
0001F8
0003F0
0003F0
0007E0
000FE0
000FC0
001F80
003F00
003F00
007E00
00FC00
00FC00
01F800
03F000
03F000
07E000
0FC000
0FFFFF
1FFFFE
3FFFFC
3FFFF8
7FFFF8
FFFFF0
ENDCHAR
STARTCHAR 0033
ENCODING 51
SWIDTH 480 0
DWIDTH 25 0
BBX 19 41 2 -1
BITMAP
00F000
03FC00
07FE00
07FF00
0FFF00
1FFF80
1F8F80
1F07C0
1E07C0
0E03C0
0E03C0
0603C0
0003C0
0003C0
0003C0
0003C0
000780
000780
000F80
003FC0
001FC0
0007C0
0003E0
0003E0
0001E0
0001E0
0001E0
0001E0
0001E0
0001E0
0001E0
0003E0
0003C0
0007C0
0007C0
0FFFC0
1FFF80
3FFF80
3FFF00
7FFF00
FFFE00
ENDCHAR
STARTCHAR 0034
ENCODING 52
SWIDTH 538 0
DWIDTH 28 0
BBX 23 42 2 -1
BITMAP
0007C0
000780
000F80
000F00
001F00
001E00
003E00
003C40
007C40
0078C0
00F8C0
00F1C0
01F1C0
01E3C0
03E3C0
03E3C0
07C3C0
07C3C0
0F83C0
0F83C0
1F03C0
1F03C0
1E03C0
3E03C0
3C03C0
7C03C0
7803C0
F803C0
FFFFFE
7FFFFC
3FFFFC
3FFFF8
1FFFF0
0FFFE0
0003C0
0003C0
0003C0
0003C0
0003C0
0003C0
0003C0
000200
ENDCHAR
STARTCHAR 0035
ENCODING 53
SWIDTH 423 0
DWIDTH 22 0
BBX 21 41 1 -1
BITMAP
1FFFF8
1FFFF0
1FFFE0
1FFFE0
1FFFC0
1FFF80
1E0000
1E0000
1E0000
1E0000
1E0000
1E0000
1E0000
1FE000
1FF800
1FFE00
1FFF00
1FFF00
1FFF80
000FC0
0007C0
0003C0
0003E0
0001E0
0001E0
0001E0
0001E0
0001E0
0001E0
0001E0
0001E0
0003E0
0003C0
0003C0
0007C0
1FFFC0
3FFF80
3FFF80
7FFF00
FFFF00
FFFE00
ENDCHAR
STARTCHAR 0036
ENCODING 54
SWIDTH 480 0
DWIDTH 25 0
BBX 20 41 2 0
BITMAP
003F00
007E00
007C00
00FC00
00F800
00F800
01F000
01F000
03E000
03E000
07C000
07C000
0F8000
0F8000
1F3000
1F7C00
1E7F00
3EFF00
3CFF80
3CFFC0
7C7FC0
7803E0
7801E0
F801E0
F000F0
F000F0
F000F0
F000F0
F000F0
F000F0
F001F0
F801E0
7803E0
7C07E0
7F0FC0
3FFFC0
1FFF80
1FFF00
0FFF00
07FC00
01F800
ENDCHAR
STARTCHAR 0037
ENCODING 55
SWIDTH 423 0
DWIDTH 22 0
BBX 18 43 3 -2
BITMAP
1FFFC0
3FFFC0
3FFFC0
7FFF80
FFFF80
FFFF80
000F80
000F00
000F00
001F00
001E00
001E00
001E00
003C00
003C00
003C00
003800
007800
007800
007000
00F000
00F000
00E000
00E000
01E000
01C000
01C000
03C000
038000
038000
038000
078000
070000
070000
0F0000
0E0000
0E0000
0E0000
1C0000
1C0000
1C0000
380000
300000
ENDCHAR
STARTCHAR 0038
ENCODING 56
SWIDTH 461 0
DWIDTH 24 0
BBX 19 41 2 0
BITMAP
03E000
07F800
0FFC00
1FFE00
3FFF00
3FFF80
7E1F80
7C0F80
780780
7807C0
7803C0
7803C0
7803C0
780780
780780
7C0F80
7E1F80
3FFF00
1FFF00
3FFF80
7FFF80
7FFFC0
FFFFC0
FE1FC0
FC07C0
F803E0
F003E0
F003E0
F001E0
F001E0
F003E0
F003C0
F803C0
FC07C0
FE1FC0
7FFFC0
7FFF80
3FFF80
1FFF00
0FFE00
03F800
ENDCHAR
STARTCHAR 0039
ENCODING 57
SWIDTH 480 0
DWIDTH 25 0
BBX 20 42 2 -1
BITMAP
01F800
03FC00
0FFF00
0FFF80
1FFF80
3FFFC0
3F0FE0
7E03E0
7C01E0
F801F0
F800F0
F000F0
F000F0
F000F0
F000F0
F000F0
F001F0
F801F0
7801E0
7C01E0
7E03E0
3FFBE0
3FFFC0
1FFFC0
0FF7C0
07FF80
03EF80
007F00
001F00
001E00
003E00
003C00
007C00
007800
00F800
00F000
01F000
01E000
03C000
07C000
078000
0C0000
ENDCHAR
STARTCHAR 003A
ENCODING 58
SWIDTH 211 0
DWIDTH 11 0
BBX 4 27 3 0
BITMAP
60
70
F0
F0
F0
F0
F0
70
60
00
00
00
00
00
00
00
00
00
60
70
F0
F0
F0
F0
F0
70
60
ENDCHAR
STARTCHAR 003B
ENCODING 59
SWIDTH 211 0
DWIDTH 11 0
BBX 4 32 3 -6
BITMAP
60
E0
F0
F0
F0
F0
F0
E0
60
00
00
00
00
00
00
00
00
00
00
00
E0
E0
E0
E0
E0
E0
E0
E0
E0
E0
E0
80
ENDCHAR
STARTCHAR 003C
ENCODING 60
SWIDTH 346 0
DWIDTH 18 0
BBX 15 28 2 6
BITMAP
007E
00FC
00F8
01F8
03F0
03E0
07E0
0FC0
1F80
1F80
3F00
7E00
7C00
FC00
FC00
7C00
7E00
3F00
1F80
1F80
0FC0
07E0
03E0
03F0
01F8
00F8
00FC
007E
ENDCHAR
STARTCHAR 003D
ENCODING 61
SWIDTH 384 0
DWIDTH 20 0
BBX 16 19 1 11
BITMAP
0003
0FFE
1FFC
1FFC
3FF8
7FF0
FFE0
0000
0000
0000
0000
0000
0003
0FFE
1FFC
1FFC
3FF8
7FF0
7FF0
ENDCHAR
STARTCHAR 003E
ENCODING 62
SWIDTH 384 0
DWIDTH 20 0
BBX 15 28 2 6
BITMAP
F800
7C00
7E00
3F00
1F00
1F80
0FC0
07C0
07E0
03F0
01F8
01F8
00FC
007E
007E
007C
00F8
01F0
01F0
03E0
07C0
07C0
0F80
1F00
1E00
3E00
7C00
F800
ENDCHAR
STARTCHAR 003F
ENCODING 63
SWIDTH 307 0
DWIDTH 16 0
BBX 15 49 1 -8
BITMAP
07E0
1FF8
3FFC
3FFE
7FFE
7C1E
701E
601E
C01E
801E
001E
001E
001E
003C
007C
00FC
01F8
03F8
07F0
07E0
07E0
07C0
0780
0700
0700
0700
0700
0700
0700
0700
0700
0700
0700
0700
0700
0600
0000
0000
0000
0000
0300
0380
0380
0780
0780
0780
0380
0380
0300
ENDCHAR
STARTCHAR 0040
ENCODING 64
SWIDTH 615 0
DWIDTH 32 0
BBX 27 41 2 0
BITMAP
003F8000
00FFE000
01FFF000
03FFF800
07FFFC00
0FE0FC00
1F803E00
1F001F00
3E000F00
3C000780
78000780
783F8380
703F83C0
F07FC1C0
F0FFC1C0
E0FFC1C0
E001E1C0
E000E1C0
E0FEE0E0
E0FEE0E0
E1FEE0E0
E1FEE0E0
E1FEE1E0
E1C0E1C0
E1C0E1C0
E1C0E3C0
F1FFFFC0
F1FFFF80
70FFFF00
78FFFE00
783EF800
3C000000
3E000000
1F000000
1F800600
0FE03F00
07FFFF80
03FFFF00
01FFFE00
00FFF800
001FE000
ENDCHAR
STARTCHAR 0041
ENCODING 65
SWIDTH 673 0
DWIDTH 35 0
BBX 34 43 -2 -2
BITMAP
0000400000
0000400000
0000E00000
0000E00000
0000E00000
0001F00000
0001F00000
0003F80000
0003F80000
0003F80000
0007FC0000
0007FC0000
000FFE0000
000FBE0000
000FBE0000
001F3F0000
001F1F0000
003F1F8000
003E0F8000
003E0FC000
007DFFC000
007FFFC000
00FFFFE000
00FBFFE000
00FFFFF000
01F7FFF000
01F000F000
03F0007800
03E0007800
07E0007C00
07C0003C00
07C0003C00
0FC0001E00
0F80001E00
1F80001F00
1F00000F00
1F00000F80
3E00000780
3E00000780
7C000007C0
7C000003C0
78000003C0
C000000000
ENDCHAR
STARTCHAR 0042
ENCODING 66
SWIDTH 519 0
DWIDTH 27 0
BBX 22 41 1 1
BITMAP
FFFC00
FFFF00
FFFF80
FFFFC0
FFFFE0
FFFFF0
F003F0
F001F0
F000F0
F000E0
F001E0
F003C0
F00380
F00780
F00F00
F01E00
F01E00
F03FC0
F07FE0
F0FFF0
F0FFF8
F000F8
F000F8
F0007C
F0007C
F0003C
F0003C
F0003C
F0003C
F0003C
F0003C
F0007C
F00078
F000F8
F001F8
FFFFF0
FFFFF0
FFFFE0
FFFFC0
FFFF80
FFFF00
ENDCHAR
STARTCHAR 0043
ENCODING 67
SWIDTH 557 0
DWIDTH 29 0
BBX 29 41 1 0
BITMAP
00FFFFF8
03FFFFF0
07FFFFE0
0FFFFFE0
0FFFFFC0
1FFFFF80
1F800000
3F000000
3E000000
3C000000
7C000000
78000000
78000000
F8000000
F8000000
F0000000
F0000000
F0000000
F0000000
F0000000
F0000000
F0000000
F0000000
F0000000
F0000000
F0000000
F0000000
F8000000
F8000000
78000000
7C000000
7C000000
3E000000
3F000000
1F800008
1FFFFFF8
0FFFFFF0
07FFFFE0
07FFFFE0
03FFFFC0
00FFFF80
ENDCHAR
STARTCHAR 0044
ENCODING 68
SWIDTH 634 0
DWIDTH 33 0
BBX 28 41 1 0
BITMAP
FFFFE000
FFFFF800
FFFFFC00
FFFFFE00
FFFFFE00
FFFFFF00
F0003F00
F0001F80
F0000F80
F00007C0
F00007C0
F00003E0
F00003E0
F00001E0
F00001E0
F00001F0
F00000F0
F00000F0
F00000F0
F00000F0
F00000F0
F00000F0
F00000F0
F00000F0
F00000F0
F00001F0
F00001E0
F00001E0
F00003E0
F00003E0
F00007C0
F00007C0
F0000F80
F0001F80
F0003F80
FFFFFF00
FFFFFE00
FFFFFE00
FFFFFC00
FFFFF800
FFFFE000
ENDCHAR
STARTCHAR 0045
ENCODING 69
SWIDTH 576 0
DWIDTH 30 0
BBX 29 41 1 0
BITMAP
01FFFFF8
03FFFFF0
07FFFFE0
0FFFFFE0
1FFFFFC0
1FFFFF80
3F800000
3F000000
7E000000
7C000000
7C000000
78000000
F8000000
F0000000
F0000000
F0000000
F0000000
FFFFFFC0
FFFFFF80
FFFFFF00
FFFFFE00
FFFFFE00
FFFFFC00
FFFFF800
F0000000
F0000000
F0000000
F0000000
78000000
78000000
7C000000
7C000000
3E000000
3F000000
1F800008
1FFFFFF0
0FFFFFF0
0FFFFFE0
07FFFFC0
03FFFFC0
01FFFF80
ENDCHAR
STARTCHAR 0046
ENCODING 70
SWIDTH 423 0
DWIDTH 22 0
BBX 23 42 0 -1
BITMAP
FFFFFE
FFFFFC
FFFFFC
FFFFF8
FFFFF0
FFFFE0
F00000
F00000
F00000
F00000
F00000
F00000
F00000
F00000
F00000
F00000
F00000
FFFFC0
FFFF80
FFFF00
FFFE00
FFFE00
FFFC00
F00000
F00000
F00000
F00000
F00000
F00000
F00000
F00000
F00000
F00000
F00000
F00000
F00000
F00000
F00000
F00000
F00000
E00000
800000
ENDCHAR
STARTCHAR 0047
ENCODING 71
SWIDTH 557 0
DWIDTH 29 0
BBX 28 41 0 -1
BITMAP
007FFFF0
00FFFFE0
03FFFFC0
03FFFFC0
07FFFF80
0FFFFF00
0FE00000
1F800000
1F000000
3E000000
3C000000
3C000000
7C000000
78000000
78000000
78000000
70000000
F001FFE0
F001FFE0
F003FFE0
F007FFE0
F00FFFE0
F00FFFE0
F00001E0
F80001E0
780001E0
780001E0
780001E0
7C0001E0
7C0001E0
3C0001E0
3E0001E0
1E0001E0
1F0001E0
0F8001E0
0FFFFFE0
07FFFFE0
03FFFFE0
01FFFFE0
00FFFFE0
003FFFE0
ENDCHAR
STARTCHAR 0048
ENCODING 72
SWIDTH 538 0
DWIDTH 28 0
BBX 25 43 1 -2
BITMAP
F0000780
F0000780
F0000780
F0000780
F0000780
F0000780
F0000780
F0000780
F0000780
F0000780
F0000780
F0000780
F0000780
F0000780
F0000780
F0000780
F3FFFF80
F3FFFF80
F3FFFF80
F3FFFF80
F3FFFF80
F3FFFF80
F0000780
F0000780
F0000780
F0000780
F0000780
F0000780
F0000780
F0000780
F0000780
F0000780
F0000780
F0000780
F0000780
F0000780
F0000780
F0000780
F0000780
F0000780
F0000780
F0000400
80000000
ENDCHAR
STARTCHAR 0049
ENCODING 73
SWIDTH 173 0
DWIDTH 9 0
BBX 4 42 2 -1
BITMAP
F0
F0
F0
F0
F0
F0
F0
F0
F0
F0
F0
F0
F0
F0
F0
F0
F0
F0
F0
F0
F0
F0
F0
F0
F0
F0
F0
F0
F0
F0
F0
F0
F0
F0
F0
F0
F0
F0
F0
F0
F0
80
ENDCHAR
STARTCHAR 004A
ENCODING 74
SWIDTH 403 0
DWIDTH 21 0
BBX 18 41 1 0
BITMAP
0003C0
0003C0
0003C0
0003C0
0003C0
0003C0
0003C0
0003C0
0003C0
0003C0
0003C0
0003C0
0003C0
0003C0
0003C0
0003C0
0003C0
0003C0
0003C0
0003C0
0003C0
0003C0
0003C0
0003C0
0003C0
0003C0
2003C0
6003C0
6003C0
E003C0
F007C0
F00780
F80780
F80F80
FE1F80
7FFF00
3FFE00
3FFE00
1FFC00
07F800
03E000
ENDCHAR
STARTCHAR 004B
ENCODING 75
SWIDTH 480 0
DWIDTH 25 0
BBX 22 42 1 -1
BITMAP
F001F0
F003E0
F007C0
F00F80
F00F80
F01F00
F03E00
F07C00
F07C00
F0F800
F1F000
F3E000
F3E000
F7C000
FF8000
FFF000
FFFC00
FFFE00
FFFF00
FFFF80
F1FF80
F03FC0
F00FC0
F007E0
F003E0
F003F0
F001F0
F000F0
F000F8
F000F8
F00078
F00078
F0007C
F0003C
F0003C
F0003C
F0003C
F0003C
F0003C
F0003C
F00030
800020
ENDCHAR
STARTCHAR 004C
ENCODING 76
SWIDTH 384 0
DWIDTH 20 0
BBX 17 41 1 0
BITMAP
F00000
F00000
F00000
F00000
F00000
F00000
F00000
F00000
F00000
F00000
F00000
F00000
F00000
F00000
F00000
F00000
F00000
F00000
F00000
F00000
F00000
F00000
F00000
F00000
F00000
F00000
F00000
F00000
F00000
F00000
F00000
F00000
F00000
F00000
F00080
FFFF00
FFFE00
FFFE00
FFFC00
FFF800
FFF800
ENDCHAR
STARTCHAR 004D
ENCODING 77
SWIDTH 846 0
DWIDTH 44 0
BBX 40 41 2 -1
BITMAP
0040000400
0020000400
0060000600
0060000E00
0070000E00
0070000E00
00F8001F00
00F8001F00
00F8001F00
00FC003F00
01FC003F80
01FC003F80
01FE007F80
01FE007F80
03FE007FC0
03FF00F7C0
03CF00F7C0
03CF01F3C0
07CF81E3E0
07C781E3E0
07C783E3E0
0787C3C1E0
0F83C3C1F0
0F83C7C1F0
0F81E781F0
0F01E780F0
0F01EF80F8
1F00FF00F8
1F00FF00F8
1E00FF0078
1E007E007C
3E007E007C
3E007E003C
3C003C003C
3C003C003E
7C0038003E
7C0018001E
780018001E
780010001F
F000000018
C000000000
ENDCHAR
STARTCHAR 004E
ENCODING 78
SWIDTH 519 0
DWIDTH 27 0
BBX 24 42 1 -1
BITMAP
E0000F
F8000F
FC000F
FE000F
FF000F
FF800F
FFC00F
FFE00F
FFE00F
FFF00F
FFF80F
F7FC0F
F3FC0F
F1FE0F
F0FF0F
F07F0F
F03F8F
F03F8F
F01FCF
F00FCF
F00FEF
F007EF
F007FF
F003FF
F003FF
F001FF
F001FF
F000FF
F000FF
F0007F
F0007F
F0003F
F0003F
F0003F
F0001F
F0001F
F0000F
F0000F
F0000F
F0000F
F0000F
800008
ENDCHAR
STARTCHAR 004F
ENCODING 79
SWIDTH 692 0
DWIDTH 36 0
BBX 31 41 2 0
BITMAP
003FF000
00FFFC00
01FFFF00
03FFFF80
07FFFFC0
0FFFFFC0
1FE00FE0
1F8003F0
3F0001F0
3E0000F8
7C0000F8
78000078
7800007C
F800003C
F000003C
F000003C
F000003C
F000003E
F000001E
F000001E
F000001E
F000001E
F000001E
F000003E
F000003C
F000003C
F000003C
F800003C
7800007C
7C000078
7C0000F8
3E0000F8
3E0001F0
1F8007F0
1FC01FE0
0FFFFFC0
07FFFFC0
07FFFF80
03FFFF00
00FFFE00
003FF800
ENDCHAR
STARTCHAR 0050
ENCODING 80
SWIDTH 461 0
DWIDTH 24 0
BBX 20 43 2 -1
BITMAP
FFFC00
FFFE00
FFFF00
FFFF80
FFFFC0
FFFFE0
F03FE0
F01FE0
F00FF0
F007F0
F00FE0
F01FE0
F03FC0
F0FF80
F1FF00
F3FE00
F7FC00
F7F800
F7F000
F7E000
F78000
F70000
F60000
F40000
F00000
F00000
F00000
F00000
F00000
F00000
F00000
F00000
F00000
F00000
F00000
F00000
F00000
F00000
F00000
F00000
F00000
C00000
800000
ENDCHAR
STARTCHAR 0051
ENCODING 81
SWIDTH 711 0
DWIDTH 37 0
BBX 32 42 2 -1
BITMAP
003FF000
00FFFC00
01FFFF00
03FFFF80
07FFFFC0
0FFFFFC0
1FE00FE0
1F8003F0
3F0001F0
3E0000F8
7C0000F8
78000078
7800007C
F800003C
F000003C
F000003C
F000003C
F000003E
F000001E
F000001E
F000001E
F000001E
F000001E
F000003E
F000003C
F003F83C
F001F83C
F800FC3C
7800FE7C
78007E78
7C003FF8
3E003FF8
3E001FF0
1F001FF0
1FC00FE0
0FFFFFF0
07FFFFF0
03FFFFF8
01FFFFFC
00FFFEFC
003FF87E
0000003F
ENDCHAR
STARTCHAR 0052
ENCODING 82
SWIDTH 576 0
DWIDTH 30 0
BBX 27 42 1 0
BITMAP
FFFF0000
FFFFC000
FFFFE000
FFFFF000
FFFFF000
FFFFF800
F003F800
F000F800
F0007800
F0007000
F0007000
F000E000
F001E000
F001C000
F0038000
F0070000
F00F8000
F00FC000
F01FF000
F03FF000
F07FF800
F007FC00
F001FE00
F000FE00
F0003F00
F0001F00
F0000F80
F0000F80
F00007C0
F00003C0
F00003C0
F00001C0
F00001E0
F00001E0
F00000E0
F00000E0
F00000E0
F00000E0
F00000E0
F00000E0
F00000E0
80000100
ENDCHAR
STARTCHAR 0053
ENCODING 83
SWIDTH 634 0
DWIDTH 33 0
BBX 31 41 1 0
BITMAP
07FFFFF0
0FFFFFE0
0FFFFFE0
1FFFFFC0
1FFFFF80
3FFFFF80
3E000000
3C000000
3C000000
3C000000
3C000000
3E000000
3F800000
1FE00000
0FF80000
0FFE0000
07FF8000
01FFF000
00FFF800
001FFE00
0007FF00
0001FFC0
00007FC0
00001FE0
000007F0
000001F8
000000F8
000000FC
0000007C
0000003C
0000003C
0000003E
0000001E
0000001E
0000001E
0FFFFFFE
1FFFFFFE
3FFFFFFE
7FFFFFFE
7FFFFFFE
FFFFFFFE
ENDCHAR
STARTCHAR 0054
ENCODING 84
SWIDTH 461 0
DWIDTH 24 0
BBX 30 43 -5 -2
BITMAP
0FFFFFFC
1FFFFFF8
3FFFFFF8
3FFFFFF0
7FFFFFE0
FFFFFFC0
000F0000
000F0000
000F0000
000F0000
000F0000
000F0000
000F0000
000F0000
000F0000
000F0000
000F0000
000F0000
000F0000
000F0000
000F0000
000F0000
000F0000
000F0000
000F0000
000F0000
000F0000
000F0000
000F0000
000F0000
000F0000
000F0000
000F0000
000F0000
000F0000
000F0000
000F0000
000F0000
000F0000
000F0000
000F0000
000F0000
00080000
ENDCHAR
STARTCHAR 0055
ENCODING 85
SWIDTH 519 0
DWIDTH 27 0
BBX 24 41 1 0
BITMAP
F0000F
F0000F
F0000F
F0000F
F0000F
F0000F
F0000F
F0000F
F0000F
F0000F
F0000F
F0000F
F0000F
F0000F
F0000F
F0000F
F0000F
F0000F
F0000F
F0000F
F0000F
F0000F
F0000F
F0000F
F0000F
F0000F
F0000F
F0000F
F0000F
F0000F
F0000F
F0000F
F0000F
F0001F
FC007F
FFFFFE
7FFFFE
7FFFFC
3FFFF8
0FFFF0
01FFC0
ENDCHAR
STARTCHAR 0056
ENCODING 86
SWIDTH 576 0
DWIDTH 30 0
BBX 27 41 2 -1
BITMAP
F00001E0
F00001E0
F80003E0
780003C0
780003C0
7C0007C0
3C000780
3C000780
3E000F80
1E000F00
1E000F00
1E001F00
0F001E00
0F001E00
0F003E00
07803C00
07803C00
07807C00
03C07800
03C07800
03C0F800
01E0F000
01E0F000
01E1F000
00F1E000
00F1E000
00F3E000
007BC000
007BC000
007FC000
003F8000
003F8000
003F8000
001F0000
001F0000
001E0000
001E0000
000E0000
000C0000
000C0000
00040000
ENDCHAR
STARTCHAR 0057
ENCODING 87
SWIDTH 903 0
DWIDTH 47 0
BBX 46 41 1 -1
BITMAP
F0000000007C
F00002000078
F80003000078
7800030000F8
7800070000F0
7C00078000F0
3C00078001F0
3C000F8001E0
3E000FC001E0
1E000FC003E0
1E001FC003C0
1F001FE003C0
0F001FE007C0
0F003FE00780
0F803DF00780
07803CF00F80
07807CF00F00
07C078F80F00
03C078780F00
03C0F0781E00
03E0F07C1E00
01E0F03C1E00
01E1E03C3C00
01F1E03E3C00
00F1E01E3C00
00F3C01E7C00
007BC01F7800
007BC00F7800
007F800FF800
003F800FF000
003F8007F000
003F0007F000
001F0007E000
001F0003E000
001E0003E000
000E0003C000
000E0001C000
000C0001C000
000400018000
000400008000
000000008000
ENDCHAR
STARTCHAR 0058
ENCODING 88
SWIDTH 730 0
DWIDTH 38 0
BBX 34 42 1 -1
BITMAP
7E00000F00
3E00001E00
1F00001E00
1F80003C00
0F80007800
07C0007800
07E000F000
03F001E000
01F001E000
01F803C000
00FC07C000
007C0F8000
003E0F0000
003F1F0000
001F3E0000
000FBC0000
000FFC0000
0007F80000
0003F00000
0003F00000
0003F00000
0007F80000
0007FC0000
000FFE0000
001FFE0000
001FBF0000
003F1F8000
007F1F8000
007E0FC000
00FC07E000
01FC07F000
01F803F000
03F003F800
07F001FC00
07E000FE00
0FC000FE00
0FC0007F00
1F80003F80
3F00003F80
3E00001FC0
7C00000FC0
F000000C00
ENDCHAR
STARTCHAR 0059
ENCODING 89
SWIDTH 615 0
DWIDTH 32 0
BBX 33 42 1 -1
BITMAP
FC00001F80
7E00001F00
7E00003F00
3F00007E00
1F80007C00
1F8000FC00
0FC001F800
0FE001F000
07E003E000
03F007E000
03F80FC000
01F80F8000
00FC1F8000
00FE3F0000
007E3E0000
007F7E0000
003FFC0000
001FF80000
001FF80000
000FF00000
000FE00000
0007E00000
0003E00000
0003E00000
0001E00000
0001E00000
0001E00000
0001E00000
0001E00000
0001E00000
0001E00000
0001E00000
0001E00000
0001E00000
0001E00000
0001E00000
0001E00000
0001E00000
0001E00000
0001E00000
0001E00000
0001000000
ENDCHAR
STARTCHAR 005A
ENCODING 90
SWIDTH 634 0
DWIDTH 33 0
BBX 29 41 1 0
BITMAP
03FFFFC0
07FFFF80
0FFFFF80
0FFFFF00
1FFFFF00
1FFFFE00
00003E00
00003C00
00007C00
00007800
0000F800
0000F000
0001F000
0003E000
0003C000
0007C000
00078000
000F8000
000F0000
001F0000
001E0000
003E0000
003C0000
007C0000
00780000
00F80000
00F00000
01F00000
01E00000
03E00000
03C00000
07C00000
0F800000
0F000000
1F000008
1FFFFFF8
3FFFFFF0
3FFFFFF0
7FFFFFE0
7FFFFFC0
FFFFFFC0
ENDCHAR
STARTCHAR 005B
ENCODING 91
SWIDTH 211 0
DWIDTH 11 0
BBX 8 43 2 -1
BITMAP
FF
FF
FF
FF
FF
FF
F0
F0
F0
F0
F0
F0
F0
F0
F0
F0
F0
F0
F0
F0
F0
F0
F0
F0
F0
F0
F0
F0
F0
F0
F0
F0
F0
F0
F0
F0
F0
FF
FF
FF
FF
FF
FF
ENDCHAR
STARTCHAR 005C
ENCODING 92
SWIDTH 423 0
DWIDTH 22 0
BBX 17 41 2 0
BITMAP
FE0000
FE0000
F80000
780000
780000
7C0000
3C0000
3C0000
3C0000
1E0000
1E0000
1E0000
0F0000
0F0000
0F0000
078000
078000
078000
03C000
03C000
03C000
03E000
01E000
01E000
01F000
00F000
00F000
00F800
007800
007800
007C00
003C00
003C00
003E00
001E00
001E00
001F00
000F00
000F00
001F00
003F80
ENDCHAR
STARTCHAR 005D
ENCODING 93
SWIDTH 211 0
DWIDTH 11 0
BBX 8 43 1 -1
BITMAP
FF
FF
FF
FF
FF
FF
0F
0F
0F
0F
0F
0F
0F
0F
0F
0F
0F
0F
0F
0F
0F
0F
0F
0F
0F
0F
0F
0F
0F
0F
0F
0F
0F
0F
0F
0F
0F
FF
FF
FF
FF
FF
FF
ENDCHAR
STARTCHAR 005E
ENCODING 94
SWIDTH 423 0
DWIDTH 22 0
BBX 17 13 2 27
BITMAP
008000
018000
01C000
03E000
07E000
07F000
0FF800
0FF800
1F7C00
3E3E00
3C3E00
7C1F00
F80F80
ENDCHAR
STARTCHAR 005F
ENCODING 95
SWIDTH 442 0
DWIDTH 23 0
BBX 22 6 3 -12
BITMAP
FFFFFC
FFFFFC
FFFFFC
FFFFFC
FFFFFC
FFFFFC
ENDCHAR
STARTCHAR 0060
ENCODING 96
SWIDTH 211 0
DWIDTH 11 0
BBX 0 0 0 0
BITMAP
ENDCHAR
STARTCHAR 0061
ENCODING 97
SWIDTH 461 0
DWIDTH 24 0
BBX 27 32 -2 -1
BITMAP
00040000
00060000
000E0000
000F0000
001F0000
001F8000
001F8000
003F8000
003FC000
007BC000
0079E000
00F9E000
00F1F000
00F0F000
01EFF000
01FFF800
03FFF800
03FFFC00
07FFFC00
07803C00
07801E00
0F001E00
0F001F00
1F000F00
1E000F80
1E000780
3C000780
3C0007C0
780003C0
780003E0
F00001E0
C00001C0
ENDCHAR
STARTCHAR 0062
ENCODING 98
SWIDTH 423 0
DWIDTH 22 0
BBX 18 32 1 0
BITMAP
FFF000
FFF800
FFFC00
FFFE00
FFFF00
E01F00
E00F00
E00E00
E01E00
E01C00
E03800
E07800
E07000
E0FC00
E1FF00
E1FF00
E00780
E00380
E003C0
E001C0
E001C0
E001C0
E001C0
E001C0
E003C0
E00380
E00780
FFFF80
FFFF00
FFFE00
FFFE00
FFF800
ENDCHAR
STARTCHAR 0063
ENCODING 99
SWIDTH 461 0
DWIDTH 24 0
BBX 23 32 1 1
BITMAP
03FFFE
0FFFFC
1FFFF8
1FFFF8
3FFFF0
3E0000
780000
780000
700000
F00000
E00000
E00000
E00000
E00000
E00000
E00000
E00000
E00000
E00000
E00000
E00000
E00000
F00000
F00000
780000
780000
3C0000
3FFFFE
1FFFFC
0FFFF8
0FFFF8
03FFF0
ENDCHAR
STARTCHAR 0064
ENCODING 100
SWIDTH 519 0
DWIDTH 27 0
BBX 23 32 1 0
BITMAP
FFFF00
FFFF80
FFFFC0
FFFFE0
FFFFF0
E001F0
E000F8
E00078
E0003C
E0003C
E0001C
E0001C
E0001E
E0000E
E0000E
E0000E
E0000E
E0000E
E0000E
E0000E
E0001E
E0001C
E0003C
E0003C
E00078
E000F8
E001F0
FFFFF0
FFFFE0
FFFFC0
FFFF80
FFFF00
ENDCHAR
STARTCHAR 0065
ENCODING 101
SWIDTH 461 0
DWIDTH 24 0
BBX 24 32 0 1
BITMAP
03FFFF
07FFFE
0FFFFC
1FFFFC
1FFFF8
3F8000
3E0000
3E0000
7C0000
780000
780000
780000
700000
7FFFF8
FFFFF8
FFFFF0
FFFFE0
7FFFC0
7FFFC0
700000
700000
700000
780000
380000
3C0000
3C0000
1F0000
1FFFFF
0FFFFE
0FFFFC
07FFFC
01FFF8
ENDCHAR
STARTCHAR 0066
ENCODING 102
SWIDTH 346 0
DWIDTH 18 0
BBX 18 33 0 -1
BITMAP
FFFFC0
FFFFC0
FFFF80
FFFF00
FFFF00
E00000
E00000
E00000
E00000
E00000
E00000
E00000
E00000
FFFC00
FFF800
FFF800
FFF000
FFE000
E00000
E00000
E00000
E00000
E00000
E00000
E00000
E00000
E00000
E00000
E00000
E00000
E00000
E00000
800000
ENDCHAR
STARTCHAR 0067
ENCODING 103
SWIDTH 461 0
DWIDTH 24 0
BBX 22 32 0 1
BITMAP
01FFFC
03FFF8
07FFF8
0FFFF0
1FFFE0
1F0000
3E0000
3C0000
780000
700000
700000
700000
F00000
E00FFC
E00FFC
E01FFC
E03FFC
E03FFC
E0001C
F0001C
70001C
70001C
70001C
78001C
38001C
3C001C
1E001C
1FFFFC
0FFFFC
07FFFC
03FFFC
00FFFC
ENDCHAR
STARTCHAR 0068
ENCODING 104
SWIDTH 442 0
DWIDTH 23 0
BBX 20 33 1 -1
BITMAP
F00070
F00070
F00070
F00070
F00070
F00070
F00070
F00070
F00070
F00070
F00070
F00070
F7FFF0
F7FFF0
F7FFF0
F7FFF0
F7FFF0
F00070
F00070
F00070
F00070
F00070
F00070
F00070
F00070
F00070
F00070
F00070
F00070
F00070
F00070
F00070
C00040
ENDCHAR
STARTCHAR 0069
ENCODING 105
SWIDTH 153 0
DWIDTH 8 0
BBX 3 33 2 -1
BITMAP
E0
E0
E0
E0
E0
E0
E0
E0
E0
E0
E0
E0
E0
E0
E0
E0
E0
E0
E0
E0
E0
E0
E0
E0
E0
E0
E0
E0
E0
E0
E0
E0
80
ENDCHAR
STARTCHAR 006A
ENCODING 106
SWIDTH 346 0
DWIDTH 18 0
BBX 14 32 1 0
BITMAP
001C
001C
001C
001C
001C
001C
001C
001C
001C
001C
001C
001C
001C
001C
001C
001C
001C
001C
001C
001C
201C
601C
601C
E01C
F03C
F03C
7878
7FF8
3FF0
1FF0
0FE0
0780
ENDCHAR
STARTCHAR 006B
ENCODING 107
SWIDTH 384 0
DWIDTH 20 0
BBX 18 34 1 -1
BITMAP
E01F00
E01F00
E03E00
E07C00
E0F800
E0F800
E1F000
E3E000
E7C000
E7C000
EF8000
FF0000
FF0000
FFE000
FFF000
FFF800
E1FC00
E07C00
E03E00
E01E00
E00F00
E00F00
E00700
E00780
E00380
E00380
E00380
E003C0
E003C0
E003C0
E003C0
E003C0
E00380
800200
ENDCHAR
STARTCHAR 006C
ENCODING 108
SWIDTH 269 0
DWIDTH 14 0
BBX 13 32 1 0
BITMAP
E000
E000
E000
E000
E000
E000
E000
E000
E000
E000
E000
E000
E000
E000
E000
E000
E000
E000
E000
E000
E000
E000
E000
E000
E000
E000
E000
FFF8
FFF0
FFE0
FFE0
FFC0
ENDCHAR
STARTCHAR 006D
ENCODING 109
SWIDTH 615 0
DWIDTH 32 0
BBX 31 33 1 0
BITMAP
00800200
00800300
01800300
01C00700
01C00700
01C00780
03E00F80
03E00F80
03E00F80
03F01FC0
07F01FC0
07F01FC0
07F83FC0
07783DE0
0F783DE0
0F3C7DE0
0E3C78E0
0E3C78F0
1E1EF8F0
1E1EF070
1C1EF070
1C0FF078
3C0FE078
3C0FE038
3C07C038
3807C03C
7807C03C
7803801C
7003801E
F003801E
F001001E
E001000E
C0010008
ENDCHAR
STARTCHAR 006E
ENCODING 110
SWIDTH 442 0
DWIDTH 23 0
BBX 19 34 1 -1
BITMAP
E00000
F000E0
F800E0
FC00E0
FE00E0
FF00E0
FF80E0
FFC0E0
FFC0E0
EFE0E0
E7F0E0
E3F0E0
E1F8E0
E0FCE0
E0FCE0
E07EE0
E03EE0
E03FE0
E01FE0
E01FE0
E00FE0
E00FE0
E007E0
E007E0
E003E0
E003E0
E003E0
E001E0
E001E0
E000E0
E000E0
E000E0
E000E0
800080
ENDCHAR
STARTCHAR 006F
ENCODING 111
SWIDTH 596 0
DWIDTH 31 0
BBX 25 32 2 0
BITMAP
00FF8000
03FFE000
07FFF000
0FFFF800
1FFFFC00
1F807C00
3E003E00
3C001E00
78000F00
70000700
70000700
F0000780
E0000380
E0000380
E0000380
E0000380
E0000380
E0000380
E0000380
E0000380
F0000780
70000700
70000700
78000F00
3C001E00
3E003E00
1F00FC00
1FFFFC00
0FFFF800
07FFF000
03FFE000
00FF8000
ENDCHAR
STARTCHAR 0070
ENCODING 112
SWIDTH 326 0
DWIDTH 17 0
BBX 16 34 1 -1
BITMAP
FFF0
FFF8
FFFC
FFFE
FFFF
E0FF
E03F
E01F
E03F
E07E
E1FC
E3F8
E7F0
E7E0
E7C0
E700
E600
E400
E000
E000
E000
E000
E000
E000
E000
E000
E000
E000
E000
E000
E000
E000
E000
8000
ENDCHAR
STARTCHAR 0071
ENCODING 113
SWIDTH 538 0
DWIDTH 28 0
BBX 26 33 1 -1
BITMAP
00FFC000
03FFE000
07FFF000
0FFFF800
0FFFFC00
1F807E00
3E001E00
3C000F00
38000F00
78000700
70000780
70000380
70000380
F0000380
E0000380
E0000380
E0000380
E0000380
E0000380
700F8380
7007C380
7007E780
7803E700
3801FF00
3C01FF00
3E00FE00
1F00FE00
0FFFFC00
0FFFFE00
07FFFF00
03FFEF00
00FF8F80
000007C0
ENDCHAR
STARTCHAR 0072
ENCODING 114
SWIDTH 442 0
DWIDTH 23 0
BBX 22 33 0 0
BITMAP
FFF800
FFFE00
FFFF00
FFFF80
FFFF80
E00F80
E00780
E00780
E00700
E00E00
E00E00
E01C00
E03800
E07E00
E07F00
E0FF80
E01FC0
E007E0
E003E0
E001F0
E000F0
E00078
E00078
E0003C
E0003C
E0001C
E0001C
E0001C
E0001C
E0001C
E0001C
E0001C
C00010
ENDCHAR
STARTCHAR 0073
ENCODING 115
SWIDTH 500 0
DWIDTH 26 0
BBX 25 32 1 1
BITMAP
1FFFFC00
3FFFF800
3FFFF800
7FFFF000
7FFFE000
78000000
70000000
70000000
70000000
78000000
3E000000
3FC00000
1FF00000
07FC0000
01FF0000
007FC000
000FF000
0003F800
0000FC00
00003C00
00001E00
00000F00
00000700
00000700
00000700
00000380
00000380
1FFFFF80
3FFFFF80
7FFFFF80
7FFFFF80
FFFFFF80
ENDCHAR
STARTCHAR 0074
ENCODING 116
SWIDTH 423 0
DWIDTH 22 0
BBX 24 33 -4 -1
BITMAP
1FFFFF
3FFFFE
3FFFFE
7FFFFC
FFFFF8
003800
003800
003800
003800
003800
003800
003800
003800
003800
003800
003800
003800
003800
003800
003800
003800
003800
003800
003800
003800
003800
003800
003800
003800
003800
003800
003800
002000
ENDCHAR
STARTCHAR 0075
ENCODING 117
SWIDTH 423 0
DWIDTH 22 0
BBX 19 32 1 0
BITMAP
E000E0
E000E0
E000E0
E000E0
E000E0
E000E0
E000E0
E000E0
E000E0
E000E0
E000E0
E000E0
E000E0
E000E0
E000E0
E000E0
E000E0
E000E0
E000E0
E000E0
E000E0
E000E0
E000E0
E000E0
E000E0
E001E0
F003E0
FFFFC0
FFFFC0
7FFF80
3FFF00
07FC00
ENDCHAR
STARTCHAR 0076
ENCODING 118
SWIDTH 423 0
DWIDTH 22 0
BBX 22 32 1 -1
BITMAP
F8003C
78003C
78003C
7C0078
3C0078
3C00F8
3E00F0
1E00F0
1E01F0
1F01E0
0F01E0
0F03E0
0F83C0
0783C0
0787C0
07C780
03C780
03CF80
03EF00
01EF00
01FF00
01FE00
00FE00
00FE00
00FC00
007C00
007800
007800
003800
003000
003000
001000
ENDCHAR
STARTCHAR 0077
ENCODING 119
SWIDTH 692 0
DWIDTH 36 0
BBX 36 34 1 -2
BITMAP
F0000000F0
F0002000F0
F8006001F0
78006001E0
78007001E0
7C00F003E0
3C00F003C0
3C00F803C0
3E01F807C0
1E01F80780
1E01FC0780
1F03FC0F80
0F03FC0F00
0F03FE0F00
0F879E0F00
07879E1E00
07879F1E00
07CF0F1E00
03CF0F3C00
03CF0F3C00
03FE07BC00
01FE07FC00
01FE07F800
01FC03F800
00FC03F800
00FC03F000
00F801F000
007801F000
007801E000
007000E000
003000E000
003000C000
0020004000
0000004000
ENDCHAR
STARTCHAR 0078
ENCODING 120
SWIDTH 538 0
DWIDTH 28 0
BBX 28 33 0 -1
BITMAP
7C0003E0
3C0003E0
1E0007C0
1F000F80
0F800F80
07801F00
07C03E00
03E07C00
01E07C00
00F0F800
00F9F000
007FE000
003FE000
003FC000
001F8000
000F8000
001F8000
003FC000
003FE000
007FE000
00F9F000
00F8F800
01F0F800
03E07C00
03E03E00
07C03F00
0F801F00
0F800F80
1F000FC0
3E0007C0
3C0007E0
7C0003F0
F0000180
ENDCHAR
STARTCHAR 0079
ENCODING 121
SWIDTH 557 0
DWIDTH 29 0
BBX 26 33 1 -1
BITMAP
F80003C0
7C000780
7C000F80
3E001F00
1F001E00
1F003E00
0F807C00
07C0F800
03E0F000
03E1F000
01F3E000
00FFC000
00FFC000
007F8000
003F0000
001E0000
001E0000
000E0000
000E0000
000E0000
000E0000
000E0000
000E0000
000E0000
000E0000
000E0000
000E0000
000E0000
000E0000
000E0000
000E0000
000E0000
00080000
ENDCHAR
STARTCHAR 007A
ENCODING 122
SWIDTH 461 0
DWIDTH 24 0
BBX 23 32 1 1
BITMAP
0FFFF8
1FFFF0
3FFFF0
3FFFE0
7FFFE0
0003C0
0007C0
000780
000F80
000F00
001F00
003E00
003C00
007C00
007800
00F800
00F000
01F000
01E000
03E000
03C000
07C000
0F8000
0F0000
1F0000
1E0000
3E0002
3FFFFC
7FFFFC
7FFFF8
FFFFF8
FFFFF0
ENDCHAR
STARTCHAR 007C
ENCODING 124
SWIDTH 211 0
DWIDTH 11 0
BBX 0 0 0 0
BITMAP
ENDCHAR
STARTCHAR 007E
ENCODING 126
SWIDTH 211 0
DWIDTH 11 0
BBX 0 0 0 0
BITMAP
ENDCHAR
STARTCHAR 00A0
ENCODING 160
SWIDTH 211 0
DWIDTH 11 0
BBX 0 0 0 0
BITMAP
ENDCHAR
STARTCHAR 2010
ENCODING 8208
SWIDTH 384 0
DWIDTH 20 0
BBX 17 11 1 8
BITMAP
000080
000180
000300
0FFE00
1FFE00
1FFC00
3FF800
7FF800
7FF000
C00000
800000
ENDCHAR
ENDFONT
